<svg xmlns="http://www.w3.org/2000/svg" xmlns:xlink="http://www.w3.org/1999/xlink" contentStyleType="text/css" data-diagram-type="DESCRIPTION" height="1442px" preserveAspectRatio="none" style="width:825px;height:1442px;background:#FFFFFF;" version="1.1" viewBox="0 0 825 1442" width="825px" zoomAndPan="magnify"><?plantuml 1.2026.6?><defs/><g><g class="title" data-source-line="2"><text fill="#183B56" font-family="Segoe UI" font-size="22" font-weight="700" lengthAdjust="spacing" textLength="454.3516" x="181.9385" y="33.7402">Clientzugriff auf Devices und Node-Streams</text></g><!--cluster DeviceIntegrationPlugin--><g class="cluster" data-qualified-name="DeviceIntegrationPlugin" data-source-line="6" id="ent0003"><rect fill="#FBFCFE" height="1371" rx="6" ry="6" style="stroke:#2AA7B8;stroke-width:1;" width="288" x="277" y="57.2617"/><text fill="#000000" font-family="Segoe UI" font-size="14" font-weight="700" lengthAdjust="spacing" textLength="160.0771" x="340.9614" y="74.3691">DeviceIntegrationPlugin</text></g><!--entity Services--><g class="entity" data-qualified-name="DeviceIntegrationPlugin.Services" data-source-line="7" id="ent0004"><ellipse cx="421.097" cy="1203.1077" fill="#F1F1F1" rx="82.097" ry="26.846" style="stroke:#181818;stroke-width:0.5;"/><text fill="#000000" font-family="Segoe UI" font-size="14" lengthAdjust="spacing" textLength="123.5322" x="359.3309" y="1203.333">aktive Integrationen</text><text fill="#000000" font-family="Segoe UI" font-size="14" lengthAdjust="spacing" textLength="55.2139" x="393.4901" y="1221.9541">abfragen</text></g><!--entity Devices--><g class="entity" data-qualified-name="DeviceIntegrationPlugin.Devices" data-source-line="8" id="ent0005"><ellipse cx="421.1355" cy="1293.208" fill="#F1F1F1" rx="60.1355" ry="27.4463" style="stroke:#181818;stroke-width:0.5;"/><text fill="#000000" font-family="Segoe UI" font-size="14" lengthAdjust="spacing" textLength="87.042" x="377.6145" y="1292.4901">aktive Devices</text><text fill="#000000" font-family="Segoe UI" font-size="14" lengthAdjust="spacing" textLength="55.2139" x="393.5286" y="1311.1111">abfragen</text></g><!--entity Info--><g class="entity" data-qualified-name="DeviceIntegrationPlugin.Info" data-source-line="9" id="ent0006"><ellipse cx="420.8877" cy="344.203" fill="#F1F1F1" rx="85.8877" ry="26.4413" style="stroke:#181818;stroke-width:0.5;"/><text fill="#000000" font-family="Segoe UI" font-size="14" lengthAdjust="spacing" textLength="131.6875" x="355.044" y="345.0851">Knoteninformationen</text><text fill="#000000" font-family="Segoe UI" font-size="14" lengthAdjust="spacing" textLength="31.8965" x="404.9395" y="363.7062">lesen</text></g><!--entity Read--><g class="entity" data-qualified-name="DeviceIntegrationPlugin.Read" data-source-line="10" id="ent0007"><ellipse cx="421.1459" cy="433.109" fill="#F1F1F1" rx="48.6459" ry="26.8472" style="stroke:#181818;stroke-width:0.5;"/><text fill="#000000" font-family="Segoe UI" font-size="14" lengthAdjust="spacing" textLength="71.2852" x="385.5034" y="433.3322">Knotenwert</text><text fill="#000000" font-family="Segoe UI" font-size="14" lengthAdjust="spacing" textLength="31.8965" x="405.1977" y="451.9533">lesen</text></g><!--entity Write--><g class="entity" data-qualified-name="DeviceIntegrationPlugin.Write" data-source-line="11" id="ent0008"><ellipse cx="421.0163" cy="524.1086" fill="#F1F1F1" rx="51.5163" ry="28.3468" style="stroke:#181818;stroke-width:0.5;"/><text fill="#000000" font-family="Segoe UI" font-size="14" lengthAdjust="spacing" textLength="71.2852" x="385.3737" y="522.0332">Knotenwert</text><text fill="#000000" font-family="Segoe UI" font-size="14" lengthAdjust="spacing" textLength="59.3838" x="391.3244" y="540.6543">schreiben</text></g><!--entity Call--><g class="entity" data-qualified-name="DeviceIntegrationPlugin.Call" data-source-line="12" id="ent0009"><ellipse cx="421.1024" cy="615.3089" fill="#F1F1F1" rx="67.6024" ry="27.0471" style="stroke:#181818;stroke-width:0.5;"/><text fill="#000000" font-family="Segoe UI" font-size="14" lengthAdjust="spacing" textLength="100.0508" x="371.077" y="615.2142">Knotenmethode</text><text fill="#000000" font-family="Segoe UI" font-size="14" lengthAdjust="spacing" textLength="51.8438" x="395.1806" y="633.8353">aufrufen</text></g><!--entity Subscribe--><g class="entity" data-qualified-name="DeviceIntegrationPlugin.Subscribe" data-source-line="13" id="ent0010"><ellipse cx="421.2074" cy="819.1315" fill="#F1F1F1" rx="121.7074" ry="28.8698" style="stroke:#181818;stroke-width:0.5;"/><text fill="#000000" font-family="Segoe UI" font-size="14" lengthAdjust="spacing" textLength="158.2588" x="342.0781" y="814.9687">Node-Ereignisse in einem</text><text fill="#000000" font-family="Segoe UI" font-size="14" lengthAdjust="spacing" textLength="170.8916" x="335.7616" y="833.5898">eigenen Stream abonnieren</text></g><!--entity Unsubscribe--><g class="entity" data-qualified-name="DeviceIntegrationPlugin.Unsubscribe" data-source-line="14" id="ent0011"><ellipse cx="420.7528" cy="1021.4214" fill="#F1F1F1" rx="96.7528" ry="26.6597" style="stroke:#181818;stroke-width:0.5;"/><text fill="#000000" font-family="Segoe UI" font-size="14" lengthAdjust="spacing" textLength="147.5742" x="346.9656" y="1021.9468">eine Client-Subscription</text><text fill="#000000" font-family="Segoe UI" font-size="14" lengthAdjust="spacing" textLength="54.2842" x="393.6107" y="1040.5679">beenden</text></g><!--entity UnsubscribeAll--><g class="entity" data-qualified-name="DeviceIntegrationPlugin.UnsubscribeAll" data-source-line="15" id="ent0012"><ellipse cx="421.2436" cy="1112.4659" fill="#F1F1F1" rx="105.2436" ry="29.2042" style="stroke:#181818;stroke-width:0.5;"/><text fill="#000000" font-family="Segoe UI" font-size="14" lengthAdjust="spacing" textLength="142.4063" x="350.0405" y="1108.7816">alle Subscriptions einer</text><text fill="#000000" font-family="Segoe UI" font-size="14" lengthAdjust="spacing" textLength="145.3115" x="348.5878" y="1127.4027">Client-Session beenden</text></g><!--entity RegistryEvents--><g class="entity" data-qualified-name="DeviceIntegrationPlugin.RegistryEvents" data-source-line="16" id="ent0013"><ellipse cx="420.8306" cy="1384.0741" fill="#F1F1F1" rx="113.3306" ry="27.8124" style="stroke:#181818;stroke-width:0.5;"/><text fill="#000000" font-family="Segoe UI" font-size="14" lengthAdjust="spacing" textLength="165.6006" x="338.0303" y="1382.7967">Integration-/Device-Events</text><text fill="#000000" font-family="Segoe UI" font-size="14" lengthAdjust="spacing" textLength="119.7109" x="360.9751" y="1401.4178">separat empfangen</text></g><!--entity Resolve--><g class="entity" data-qualified-name="DeviceIntegrationPlugin.Resolve" data-source-line="17" id="ent0014"><ellipse cx="420.9624" cy="122.0448" fill="#F1F1F1" rx="99.9624" ry="27.7831" style="stroke:#181818;stroke-width:0.5;"/><text fill="#000000" font-family="Segoe UI" font-size="14" lengthAdjust="spacing" textLength="104.3643" x="368.7803" y="116.2778">Device auf aktive</text><text fill="#000000" font-family="Segoe UI" font-size="14" lengthAdjust="spacing" textLength="145.708" x="348.1084" y="134.8989">ServiceSession aufl&#246;sen</text></g><!--entity Route--><g class="entity" data-qualified-name="DeviceIntegrationPlugin.Route" data-source-line="18" id="ent0015"><ellipse cx="420.8072" cy="234.2127" fill="#F1F1F1" rx="86.8072" ry="28.951" style="stroke:#181818;stroke-width:0.5;"/><text fill="#000000" font-family="Segoe UI" font-size="14" lengthAdjust="spacing" textLength="112.998" x="364.3081" y="230.1667">TreeNode-Auftrag</text><text fill="#000000" font-family="Segoe UI" font-size="14" lengthAdjust="spacing" textLength="120.2715" x="360.6714" y="248.7878">zielgerichtet routen</text></g><!--entity Share--><g class="entity" data-qualified-name="DeviceIntegrationPlugin.Share" data-source-line="19" id="ent0016"><ellipse cx="420.7875" cy="706.0435" fill="#F1F1F1" rx="116.2875" ry="28.7818" style="stroke:#181818;stroke-width:0.5;"/><text fill="#000000" font-family="Segoe UI" font-size="14" lengthAdjust="spacing" textLength="163.6455" x="338.9647" y="703.3333">Upstream-Subscription bis</text><text fill="#000000" font-family="Segoe UI" font-size="14" lengthAdjust="spacing" textLength="149.1191" x="346.2279" y="721.9544">zum letzten Client teilen</text></g><!--entity Cancel--><g class="entity" data-qualified-name="DeviceIntegrationPlugin.Cancel" data-source-line="20" id="ent0017"><ellipse cx="420.9991" cy="931.3045" fill="#F1F1F1" rx="127.9991" ry="28.5428" style="stroke:#181818;stroke-width:0.5;"/><text fill="#000000" font-family="Segoe UI" font-size="14" lengthAdjust="spacing" textLength="182.2529" x="329.8727" y="928.9417">bei Streamabbruch genau die</text><text fill="#000000" font-family="Segoe UI" font-size="14" lengthAdjust="spacing" textLength="158.4365" x="341.7809" y="947.5627">Client-Referenz entfernen</text></g><!--entity Client--><g class="entity" data-qualified-name="Client" data-source-line="4" id="ent0001"><ellipse cx="88.6772" cy="908.2617" fill="#F1F1F1" rx="8" ry="8" style="stroke:#181818;stroke-width:0.5;"/><path d="M88.6772,916.2617 L88.6772,943.2617 M75.6772,924.2617 L101.6772,924.2617 M88.6772,943.2617 L75.6772,958.2617 M88.6772,943.2617 L101.6772,958.2617" fill="none" style="stroke:#181818;stroke-width:0.5;"/><text fill="#000000" font-family="Segoe UI" font-size="14" lengthAdjust="spacing" textLength="115.6846" x="6" y="974.8691">Client-Anwendung</text><text fill="#000000" font-family="Segoe UI" font-size="14" lengthAdjust="spacing" textLength="165.3545" x="6" y="993.4902">&#252;ber TreeNodeBasedClient</text></g><!--entity Integration--><g class="entity" data-qualified-name="Integration" data-source-line="5" id="ent0002"><ellipse cx="711.1143" cy="203.2617" fill="#F1F1F1" rx="8" ry="8" style="stroke:#181818;stroke-width:0.5;"/><path d="M711.1143,211.2617 L711.1143,238.2617 M698.1143,219.2617 L724.1143,219.2617 M711.1143,238.2617 L698.1143,253.2617 M711.1143,238.2617 L724.1143,253.2617" fill="none" style="stroke:#181818;stroke-width:0.5;"/><text fill="#000000" font-family="Segoe UI" font-size="14" lengthAdjust="spacing" textLength="198.2285" x="612" y="269.8691">DeviceIntegrationAgentRuntime</text></g><!--link Client to Services--><g class="link" data-entity-1="ent0001" data-entity-2="ent0004" data-link-type="dependency" data-source-line="22" id="lnk18"><path d="M119.15,997.0617 C150.63,1044.8517 204.67,1116.4217 269,1158.2617 C292.62,1173.6217 316.8398,1182.6479 343.1298,1189.4579" fill="none" id="Client-to-Services" style="stroke:#2E74B5;stroke-width:2;"/><polygon fill="#2E74B5" points="347.97,1190.7117,340.2606,1184.5827,343.1298,1189.4579,338.2545,1192.3271,347.97,1190.7117" style="stroke:#2E74B5;stroke-width:2;stroke-linejoin:miter;stroke-miterlimit:10;"/></g><!--link Client to Devices--><g class="link" data-entity-1="ent0001" data-entity-2="ent0005" data-link-type="dependency" data-source-line="23" id="lnk19"><path d="M104.49,996.9317 C127.99,1064.5717 180.23,1185.6117 269,1247.2617 C297.02,1266.7217 328.6158,1277.062 358.7058,1283.652" fill="none" id="Client-to-Devices" style="stroke:#2E74B5;stroke-width:2;"/><polygon fill="#2E74B5" points="363.59,1284.7217,355.6541,1278.8889,358.7058,1283.652,353.9426,1286.7037,363.59,1284.7217" style="stroke:#2E74B5;stroke-width:2;stroke-linejoin:miter;stroke-miterlimit:10;"/></g><!--link Client to Info--><g class="link" data-entity-1="ent0001" data-entity-2="ent0006" data-link-type="dependency" data-source-line="24" id="lnk20"><path d="M91.75,899.3917 C98.63,773.3317 123.83,442.0417 201,370.2617 C238.57,335.3217 291.8183,329.5438 338.7983,332.2538" fill="none" id="Client-to-Info" style="stroke:#2E74B5;stroke-width:2;"/><polygon fill="#2E74B5" points="343.79,332.5417,335.0353,328.0301,338.7983,332.2538,334.5746,336.0168,343.79,332.5417" style="stroke:#2E74B5;stroke-width:2;stroke-linejoin:miter;stroke-miterlimit:10;"/></g><!--link Client to Read--><g class="link" data-entity-1="ent0001" data-entity-2="ent0007" data-link-type="dependency" data-source-line="25" id="lnk21"><path d="M98.69,899.5117 C113.55,827.0917 146.8,688.0617 201,580.2617 C221.12,540.2317 239.49,538.5617 261,499.2617 C265.8,490.5017 261.68,485.0517 269,478.2617 C297.17,452.1117 334.9484,441.8055 367.7784,437.2055" fill="none" id="Client-to-Read" style="stroke:#2E74B5;stroke-width:2;"/><polygon fill="#2E74B5" points="372.73,436.5117,363.262,433.7993,367.7784,437.2055,364.3721,441.7219,372.73,436.5117" style="stroke:#2E74B5;stroke-width:2;stroke-linejoin:miter;stroke-miterlimit:10;"/></g><!--link Client to Write--><g class="link" data-entity-1="ent0001" data-entity-2="ent0008" data-link-type="dependency" data-source-line="26" id="lnk22"><path d="M97.57,899.6617 C113.96,817.4117 159.39,651.7417 269,570.2617 C298.69,548.1917 334.1487,537.5394 365.6787,531.5194" fill="none" id="Client-to-Write" style="stroke:#2E74B5;stroke-width:2;"/><polygon fill="#2E74B5" points="370.59,530.5817,360.9995,528.3406,365.6787,531.5194,362.4999,536.1986,370.59,530.5817" style="stroke:#2E74B5;stroke-width:2;stroke-linejoin:miter;stroke-miterlimit:10;"/></g><!--link Client to Call--><g class="link" data-entity-1="ent0001" data-entity-2="ent0009" data-link-type="dependency" data-source-line="27" id="lnk23"><path d="M106.87,899.6417 C132.41,835.1417 186.2,722.1117 269,659.2617 C294.12,640.1917 322.419,630.4102 351.289,624.2802" fill="none" id="Client-to-Call" style="stroke:#2E74B5;stroke-width:2;"/><polygon fill="#2E74B5" points="356.18,623.2417,346.5455,621.1983,351.289,624.2802,348.2071,629.0238,356.18,623.2417" style="stroke:#2E74B5;stroke-width:2;stroke-linejoin:miter;stroke-miterlimit:10;"/></g><!--link Client to Subscribe--><g class="link" data-entity-1="ent0001" data-entity-2="ent0010" data-link-type="dependency" data-source-line="28" id="lnk24"><path d="M171.2,916.3717 C228.54,893.9917 299.4524,866.3201 352.1924,845.7301" fill="none" id="Client-to-Subscribe" style="stroke:#2E74B5;stroke-width:2;"/><polygon fill="#2E74B5" points="356.85,843.9117,347.0116,843.4587,352.1924,845.7301,349.921,850.9109,356.85,843.9117" style="stroke:#2E74B5;stroke-width:2;stroke-linejoin:miter;stroke-miterlimit:10;"/></g><!--link Client to Unsubscribe--><g class="link" data-entity-1="ent0001" data-entity-2="ent0011" data-link-type="dependency" data-source-line="29" id="lnk25"><path d="M171.28,977.0217 C181.22,980.0417 191.3,982.8717 201,985.2617 C243.93,995.8417 287.4337,1003.4406 327.8237,1009.4106" fill="none" id="Client-to-Unsubscribe" style="stroke:#2E74B5;stroke-width:2;"/><polygon fill="#2E74B5" points="332.77,1010.1417,324.4516,1004.8687,327.8237,1009.4106,323.2819,1012.7827,332.77,1010.1417" style="stroke:#2E74B5;stroke-width:2;stroke-linejoin:miter;stroke-miterlimit:10;"/></g><!--link Client to UnsubscribeAll--><g class="link" data-entity-1="ent0001" data-entity-2="ent0012" data-link-type="dependency" data-source-line="30" id="lnk26"><path d="M154.7,997.0217 C187.69,1020.0317 229.11,1046.5017 269,1065.2617 C292.23,1076.1917 313.8437,1083.9555 338.0037,1091.2555" fill="none" id="Client-to-UnsubscribeAll" style="stroke:#2E74B5;stroke-width:2;"/><polygon fill="#2E74B5" points="342.79,1092.7017,335.3316,1086.2696,338.0037,1091.2555,333.0177,1093.9276,342.79,1092.7017" style="stroke:#2E74B5;stroke-width:2;stroke-linejoin:miter;stroke-miterlimit:10;"/></g><!--link Client to RegistryEvents--><g class="link" data-entity-1="ent0001" data-entity-2="ent0013" data-link-type="dependency" data-source-line="31" id="lnk27"><path d="M96.28,996.9217 C110.93,1081.9217 154.05,1256.1817 269,1338.2617 C287.06,1351.1617 304.0538,1358.9906 325.3438,1365.7406" fill="none" id="Client-to-RegistryEvents" style="stroke:#2E74B5;stroke-width:2;"/><polygon fill="#2E74B5" points="330.11,1367.2517,322.7398,1360.7188,325.3438,1365.7406,320.322,1368.3447,330.11,1367.2517" style="stroke:#2E74B5;stroke-width:2;stroke-linejoin:miter;stroke-miterlimit:10;"/></g><!--link Info to Route--><g class="link" data-entity-1="ent0006" data-entity-2="ent0015" data-link-type="dependency" data-source-line="32" id="lnk28"><path d="M421,317.6317 C421,301.2317 421,285.1917 421,268.3517" fill="none" id="Info-to-Route" style="stroke:#2E74B5;stroke-width:2;stroke-dasharray:7,7;"/><polygon fill="#2E74B5" points="421,263.3517,417,272.3517,421,268.3517,425,272.3517,421,263.3517" style="stroke:#2E74B5;stroke-width:2;stroke-linejoin:miter;stroke-miterlimit:10;"/><text fill="#000000" font-family="Segoe UI" font-size="14" lengthAdjust="spacing" textLength="58.8232" x="379" y="296.6191">&#171;include&#187;</text></g><!--link Read to Route--><g class="link" data-entity-1="ent0007" data-entity-2="ent0015" data-link-type="dependency" data-source-line="33" id="lnk29"><path d="M372.7,429.5717 C339.96,424.7417 297.6,413.6617 269,388.2617 C231.69,355.1317 201.37,321.6517 232,282.2617 C255.9,251.5317 291.5103,239.3549 328.9503,234.5749" fill="none" id="Read-to-Route" style="stroke:#2E74B5;stroke-width:2;stroke-dasharray:7,7;"/><polygon fill="#2E74B5" points="333.91,233.9417,324.4759,231.1137,328.9503,234.5749,325.489,239.0493,333.91,233.9417" style="stroke:#2E74B5;stroke-width:2;stroke-linejoin:miter;stroke-miterlimit:10;"/><text fill="#000000" font-family="Segoe UI" font-size="14" lengthAdjust="spacing" textLength="58.8232" x="202" y="298.3691">&#171;include&#187;</text></g><!--link Write to Route--><g class="link" data-entity-1="ent0008" data-entity-2="ent0015" data-link-type="dependency" data-source-line="34" id="lnk30"><path d="M371.08,531.6817 C327.15,535.0617 265.18,531.5317 232,492.2617 C223.17,481.8117 204.12,379.4317 269,300.2617 C288.97,275.8917 314.9335,261.9328 343.5335,252.0628" fill="none" id="Write-to-Route" style="stroke:#2E74B5;stroke-width:2;stroke-dasharray:7,7;"/><polygon fill="#2E74B5" points="348.26,250.4317,338.4475,249.5866,343.5335,252.0628,341.0573,257.1489,348.26,250.4317" style="stroke:#2E74B5;stroke-width:2;stroke-linejoin:miter;stroke-miterlimit:10;"/><text fill="#000000" font-family="Segoe UI" font-size="14" lengthAdjust="spacing" textLength="58.8232" x="202" y="488.3691">&#171;include&#187;</text></g><!--link Call to Route--><g class="link" data-entity-1="ent0009" data-entity-2="ent0015" data-link-type="dependency" data-source-line="35" id="lnk31"><path d="M354.2,610.6817 C324.23,605.2117 290.79,593.7817 269,570.2617 C215.85,512.9117 240.27,476.0117 232,398.2617 C227.08,351.9617 235.54,332.6317 269,300.2617 C292.06,277.9617 319.155,264.2536 347.715,253.9836" fill="none" id="Call-to-Route" style="stroke:#2E74B5;stroke-width:2;stroke-dasharray:7,7;"/><polygon fill="#2E74B5" points="352.42,252.2917,342.5974,251.5731,347.715,253.9836,345.3044,259.1012,352.42,252.2917" style="stroke:#2E74B5;stroke-width:2;stroke-linejoin:miter;stroke-miterlimit:10;"/><text fill="#000000" font-family="Segoe UI" font-size="14" lengthAdjust="spacing" textLength="58.8232" x="202" y="394.3691">&#171;include&#187;</text></g><!--link Subscribe to Route--><g class="link" data-entity-1="ent0010" data-entity-2="ent0015" data-link-type="dependency" data-source-line="36" id="lnk32"><path d="M334.39,798.7617 C309.62,788.7317 285.03,773.9417 269,752.2617 C180.23,632.1517 209.4,565.8917 232,418.2617 C240.32,363.9317 232.25,341.1217 269,300.2617 C290.26,276.6217 316.7709,262.7539 345.3909,252.7339" fill="none" id="Subscribe-to-Route" style="stroke:#2E74B5;stroke-width:2;stroke-dasharray:7,7;"/><polygon fill="#2E74B5" points="350.11,251.0817,340.2938,250.2804,345.3909,252.7339,342.9373,257.831,350.11,251.0817" style="stroke:#2E74B5;stroke-width:2;stroke-linejoin:miter;stroke-miterlimit:10;"/><text fill="#000000" font-family="Segoe UI" font-size="14" lengthAdjust="spacing" textLength="58.8232" x="202" y="434.3691">&#171;include&#187;</text></g><!--link Subscribe to Share--><g class="link" data-entity-1="ent0010" data-entity-2="ent0016" data-link-type="dependency" data-source-line="37" id="lnk33"><path d="M421,790.1617 C421,773.2917 421,757.1217 421,740.2617" fill="none" id="Subscribe-to-Share" style="stroke:#2E74B5;stroke-width:2;stroke-dasharray:7,7;"/><polygon fill="#2E74B5" points="421,735.2617,417,744.2617,421,740.2617,425,744.2617,421,735.2617" style="stroke:#2E74B5;stroke-width:2;stroke-linejoin:miter;stroke-miterlimit:10;"/><text fill="#000000" font-family="Segoe UI" font-size="14" lengthAdjust="spacing" textLength="58.8232" x="379" y="768.8691">&#171;include&#187;</text></g><!--link Cancel to Subscribe--><g class="link" data-entity-1="ent0017" data-entity-2="ent0010" data-link-type="dependency" data-source-line="38" id="lnk34"><path d="M421,902.7117 C421,886.1217 421,870.2517 421,853.5417" fill="none" id="Cancel-to-Subscribe" style="stroke:#2E74B5;stroke-width:2;stroke-dasharray:7,7;"/><polygon fill="#2E74B5" points="421,848.5417,417,857.5417,421,853.5417,425,857.5417,421,848.5417" style="stroke:#2E74B5;stroke-width:2;stroke-linejoin:miter;stroke-miterlimit:10;"/><text fill="#000000" font-family="Segoe UI" font-size="14" lengthAdjust="spacing" textLength="56.1436" x="380" y="881.6191">&#171;extend&#187;</text></g><!--link Unsubscribe to Share--><g class="link" data-entity-1="ent0011" data-entity-2="ent0016" data-link-type="dependency" data-source-line="39" id="lnk35"><path d="M330.76,1011.2017 C308.06,1004.6917 285.49,994.1717 269,977.2617 C217.74,924.7017 206.85,885.2417 232,816.2617 C248.68,770.5117 291.3946,744.7473 334.5546,728.6673" fill="none" id="Unsubscribe-to-Share" style="stroke:#2E74B5;stroke-width:2;stroke-dasharray:7,7;"/><polygon fill="#2E74B5" points="339.24,726.9217,329.4098,726.3155,334.5546,728.6673,332.2028,733.8121,339.24,726.9217" style="stroke:#2E74B5;stroke-width:2;stroke-linejoin:miter;stroke-miterlimit:10;"/><text fill="#000000" font-family="Segoe UI" font-size="14" lengthAdjust="spacing" textLength="58.8232" x="202" y="832.3691">&#171;include&#187;</text></g><!--link UnsubscribeAll to Share--><g class="link" data-entity-1="ent0012" data-entity-2="ent0016" data-link-type="dependency" data-source-line="40" id="lnk36"><path d="M329.45,1097.8517 C307.67,1090.8817 285.88,1080.5617 269,1065.2617 C237.56,1036.7717 240.39,1018.8517 232,977.2617 C217.45,905.1317 182.85,878.9617 269,772.2617 C286.17,751.0017 306.8794,738.2579 331.9794,728.3479" fill="none" id="UnsubscribeAll-to-Share" style="stroke:#2E74B5;stroke-width:2;stroke-dasharray:7,7;"/><polygon fill="#2E74B5" points="336.63,726.5117,326.7899,726.0963,331.9794,728.3479,329.7278,733.5373,336.63,726.5117" style="stroke:#2E74B5;stroke-width:2;stroke-linejoin:miter;stroke-miterlimit:10;"/><text fill="#000000" font-family="Segoe UI" font-size="14" lengthAdjust="spacing" textLength="58.8232" x="202" y="973.3691">&#171;include&#187;</text></g><!--link Route to Resolve--><g class="link" data-entity-1="ent0015" data-entity-2="ent0014" data-link-type="dependency" data-source-line="41" id="lnk37"><path d="M421,205.1317 C421,188.2717 421,172.1717 421,155.4717" fill="none" id="Route-to-Resolve" style="stroke:#2E74B5;stroke-width:2;stroke-dasharray:7,7;"/><polygon fill="#2E74B5" points="421,150.4717,417,159.4717,421,155.4717,425,159.4717,421,150.4717" style="stroke:#2E74B5;stroke-width:2;stroke-linejoin:miter;stroke-miterlimit:10;"/><text fill="#000000" font-family="Segoe UI" font-size="14" lengthAdjust="spacing" textLength="58.8232" x="379" y="183.8691">&#171;include&#187;</text></g><!--link Route to Integration--><g class="link" data-entity-1="ent0015" data-entity-2="ent0002" data-link-type="dependency" data-source-line="42" id="lnk38"><path d="M508.02,234.2617 C540.67,234.2617 573.1,234.2617 606.79,234.2617" fill="none" id="Route-to-Integration" style="stroke:#2E74B5;stroke-width:2;"/><polygon fill="#2E74B5" points="611.79,234.2617,602.79,230.2617,606.79,234.2617,602.79,238.2617,611.79,234.2617" style="stroke:#2E74B5;stroke-width:2;stroke-linejoin:miter;stroke-miterlimit:10;"/></g><?plantuml-src ZLIxRjj04Epv5HlrTFh04A0uBem0GM37ICFcI2x9WuzBuHvoeY2_bIgTVonx3z8dImJIYRkpiu-Pqpj9ZN8jWXrmnAkz6rLXfLK8DqeYsQFhjUmw4Aw3JtYG3HfmrCANgSNomMeKeoaKTXRi15hsWuLMQcoidAWGZPqqR29JkQDdfDPHNz7BtnerVDE8dkUZCDX6q0Q4IPtdwjZrZYpsMdZQNS_PUqTMZXZmMQxmhGNrFFzvuLVbUaaR-5K0E8CDjuMDUBBoW3a7KaMYxhJWFe7_0NLO_49PEicRWXJDyPzfiaYIkacFInU59bNSSU8S_epQvgXx5EqQoZI3Hbadv7SjBPv3HxG37vp7TPrsNGBV2ALoRD3sbjbwaeO3aW0buLWHXv0dXoWyY7eYagZdExdQD9fdoCbyPLAqJ82ztx-Y6jaEgVIHpALY7WmXhp9X4btHp8Z6S1XMk7QdYsKYb--ZIENjWNbOG8DxmId0ST-nWPQBzz9O_JEYSgvO7jv5z495oIVpJ9nIBtzUjJEJEfniD_k_tBdEidigEafKFMhP31OjwCdPkTh_p6iVzoPeS79Jg2LlSdGZABH7has71ujIpI8DGfymrIYJdgAkjMi6uEM5usUCovdliVCg7u4_-1Sjng46LV6xI6tASllwMBBO_1woK31yzXsidNr70sU1ODAyp-ANB9ZRw79uTyhoHby_5LnjuxdX0rnVfx_7xRRm4wxbmhHhIJ_vMcxPuhy0GRipTgz1o2vGZy0Vh7_BW6pvDOxJ-woXudX-pcZbY-cexVBC_W40?></g></svg>